<?xml version="1.0" standalone="no"?>
<!DOCTYPE svg PUBLIC "-//W3C//DTD SVG 20010904//EN"
 "http://www.w3.org/TR/2001/REC-SVG-20010904/DTD/svg10.dtd">
<svg version="1.0" xmlns="http://www.w3.org/2000/svg"
 width="300.000000pt" height="173.000000pt" viewBox="0 0 300.000000 173.000000"
 preserveAspectRatio="xMidYMid meet">
<metadata>
Created by potrace 1.10, written by Peter Selinger 2001-2011
</metadata>
<g transform="translate(0.000000,173.000000) scale(0.100000,-0.100000)"
fill="#000000" stroke="none">
<path d="M246 1561 c-33 -36 -58 -133 -38 -145 5 -3 7 7 5 22 -3 16 7 50 25
85 16 31 28 57 27 57 -1 0 -10 -9 -19 -19z"/>
<path d="M1028 1530 c-72 -12 -146 -38 -218 -77 -68 -37 -174 -121 -205 -163
-19 -25 -19 -25 2 -7 18 16 26 16 69 5 27 -7 50 -13 51 -13 2 -1 -11 -27 -28
-58 -18 -33 -29 -66 -26 -79 4 -22 4 -22 6 2 1 14 14 48 29 75 l27 50 75 7
c79 8 156 39 211 85 26 22 36 25 74 20 167 -23 349 -154 459 -330 74 -118 83
-227 21 -243 -37 -9 -135 4 -197 25 -88 31 -145 60 -262 131 -181 110 -406
235 -406 227 0 -3 51 -33 113 -67 61 -35 182 -105 267 -155 212 -127 333 -175
438 -175 84 0 109 35 92 128 -15 81 -80 183 -179 282 -69 69 -103 94 -171 127
-47 23 -113 47 -147 54 l-63 13 23 24 c42 45 51 45 100 -3 35 -36 51 -45 79
-45 68 0 91 68 40 120 -45 44 -153 60 -274 40z m193 -11 c62 -13 99 -46 99
-87 0 -37 -17 -52 -59 -52 -28 0 -42 8 -77 45 -23 25 -44 45 -48 45 -3 0 -24
-16 -46 -36 -38 -34 -44 -36 -120 -39 -90 -4 -149 -27 -200 -80 -30 -31 -34
-32 -73 -23 -23 5 -46 13 -50 17 -5 5 14 27 42 50 159 133 366 195 532 160z
m-191 -138 c0 -11 -68 -56 -115 -75 -20 -9 -67 -19 -103 -22 l-67 -7 25 28
c32 34 94 67 145 76 59 10 115 10 115 0z"/>
<path d="M501 1507 c-12 -32 -66 -75 -121 -99 -38 -16 -58 -18 -122 -13 -90 8
-99 1 -79 -64 16 -57 61 -111 145 -180 58 -48 81 -61 97 -56 11 4 53 40 92 80
l72 73 48 -24 c26 -14 47 -22 47 -19 0 7 -193 103 -282 140 l-77 32 49 17 c26
9 66 33 89 52 30 26 41 31 41 19 0 -38 55 -117 95 -137 11 -5 3 5 -17 24 -48
44 -71 91 -66 139 4 45 1 49 -11 16z m-149 -153 c91 -36 218 -96 218 -104 0
-11 -147 -150 -158 -150 -19 0 -158 118 -185 157 -30 44 -47 85 -47 115 0 19
4 20 55 13 30 -3 83 -17 117 -31z"/>
</g>
</svg>
